<?xml version="1.0" encoding="UTF-8"?>
<svg width="17px" height="19px" viewBox="0 0 17 19" version="1.1" xmlns="http://www.w3.org/2000/svg" xmlns:xlink="http://www.w3.org/1999/xlink">
    <title>btn_alram</title>
    <g id="btn_alram" stroke="none" stroke-width="1" fill="none" fill-rule="evenodd">
        <rect id="Rectangle" x="0" y="0" width="17" height="19"></rect>
        <g id="Group-6" transform="translate(0.047718, 1.100000)" fill="#000000" fill-rule="nonzero">
            <g id="Group">
                <path d="M8.40459995,0 C4.49234141,0 1.29660984,3.0371714 1.29660984,6.81496909 L1.29660984,10.7981029 C1.29799427,11.6500155 1.10676339,12.4917803 0.735193594,13.2681735 L0,14.8045137 L16.8091741,14.8045137 L16.0740112,13.2682001 C15.7024164,12.4917547 15.5111944,11.6499972 15.5126208,10.7991087 L15.5126216,6.81496909 C15.5126216,3.0371712 12.3168742,0 8.40459995,0 Z M8.40459995,1.2 C11.6674068,1.2 14.3126216,3.71395657 14.3126216,6.81496909 L14.3126216,10.7981029 L14.3206653,11.1410317 C14.3594957,11.9398133 14.5384048,12.7273207 14.8499537,13.4705068 L14.9092821,13.604 L1.89828206,13.604 L1.81762855,13.7861837 C2.26669267,12.8478665 2.49828596,11.8284334 2.49660904,10.7971273 L2.49660984,6.81496909 C2.49660984,3.71395536 5.14181008,1.2 8.40459995,1.2 Z" id="Shape"></path>
                <path d="M6.77078573,14.2395191 C6.77078573,15.1402184 7.50213436,15.8707237 8.40459995,15.8707237 C9.30708979,15.8707237 10.0384851,15.140202 10.0384851,14.2395191 L11.2384851,14.2395191 C11.2384851,15.803265 9.96951062,17.0707237 8.40459995,17.0707237 C6.83970241,17.0707237 5.57078573,15.8032703 5.57078573,14.2395191 L6.77078573,14.2395191 Z" id="Path"></path>
            </g>
        </g>
    </g>
</svg>